<!-- gear-yellow.svg -->
<svg xmlns="http://www.w3.org/2000/svg" viewBox="0 0 24 24" width="256" height="256" fill="none">
  <path d="M12 15.5A3.5 3.5 0 1 1 12 8.5a3.5 3.5 0 0 1 0 7z" fill="#FFD400"/>
  <path d="M19.4 15a7 7 0 0 0 .1-1 7 7 0 0 0-.1-1l2.2-1.7a.5.5 0 0 0 .12-.63l-2.1-3.64a.5.5 0 0 0-.6-.22l-2.6 1a6.9 6.9 0 0 0-1.7-.98L14.5 2.4a.5.5 0 0 0-.5-.4h-4.1a.5.5 0 0 0-.5.4L8.2 6.2c-.6.2-1.1.5-1.7.9l-2.6-1a.5.5 0 0 0-.6.22L1.2 9.9a.5.5 0 0 0 .12.63L3.5 12a7 7 0 0 0 0 2l-2.2 1.7a.5.5 0 0 0-.12.63l2.1 3.64a.5.5 0 0 0 .6.22l2.6-1c.5.4 1.1.7 1.7.9l.9 3.8c.08.3.36.4.5.4h4.1c.14 0 .42-.1.5-.4l.9-3.8c.6-.2 1.1-.5 1.7-.9l2.6 1a.5.5 0 0 0 .6-.22l2.1-3.64a.5.5 0 0 0-.12-.63L19.4 15z" fill="#FFD400"/>
</svg>
